Coordinates
version=1
nRows=22
nColumns=18
inDegrees=yes

Units are S.I. units (second, meters, Newtons, ...)
If the header above contains a line with 'inDegrees', this indicates whether rotational values are in degrees (yes) or radians (no).

endheader
time	ground_thorax_rot_x	ground_thorax_rot_y	ground_thorax_rot_z	ground_thorax_tx	ground_thorax_ty	ground_thorax_tz	clav_prot	clav_elev	scapula_abduction	scapula_elevation	scapula_upward_rot	scapula_winging	plane_elv	shoulder_elv	axial_rot	elbow_flexion	pro_sup
      1.93000000	     -0.29539769	      2.23959923	     -7.65690472	     -0.00399714	      0.00647477	     -0.00733115	    -36.19156255	      3.32260395	    -23.02185976	     -4.01930579	     34.58423902	     -4.65620831	     11.37090874	     57.28496510	     -8.87040742	      0.00000000	     34.32000000
      1.94000000	     -0.26357600	      2.42359339	     -7.68773768	     -0.00389107	      0.00640642	     -0.00742069	    -36.36617551	      3.40812806	    -23.13997341	     -4.01304805	     34.83653852	     -4.80437312	     11.79445908	     57.97199384	     -9.04817055	      0.00000000	     34.32000000
      1.95000000	     -0.32171121	      2.56528045	     -7.66944486	     -0.00388179	      0.00641865	     -0.00756361	    -36.47617781	      3.37547164	    -23.01666241	     -4.10567626	     35.21855906	     -4.91640698	     11.91620688	     58.55350597	     -9.01942076	      0.00000000	     34.32000000
      1.96000000	     -0.37873335	      2.66627209	     -7.65714780	     -0.00393314	      0.00643492	     -0.00765227	    -36.57415203	      3.34998637	    -22.86066721	     -4.19459302	     35.62139804	     -5.02911087	     12.06458104	     59.19600786	     -8.98544548	      0.00000000	     34.32000000
      1.97000000	     -0.41300331	      2.70305215	     -7.67379555	     -0.00402121	      0.00647500	     -0.00773674	    -36.63873344	      3.37676945	    -22.67240847	     -4.24221603	     36.02013353	     -5.14315291	     12.26308681	     59.89534442	     -8.96024765	      0.00000000	     34.32000000
      1.98000000	     -0.44164615	      2.62458514	     -7.71782245	     -0.00401627	      0.00647032	     -0.00777957	    -36.63852177	      3.52443918	    -22.47768654	     -4.18723591	     36.34599673	     -5.25426733	     12.58449805	     60.59814825	     -8.97183823	      0.00000000	     34.32000000
      1.99000000	     -0.47261387	      2.37495047	     -7.67151204	     -0.00393389	      0.00641225	     -0.00770348	    -36.55444402	      3.78726572	    -22.27447972	     -4.02693821	     36.56006976	     -5.34454433	     13.13263314	     61.25253883	     -9.12392603	      0.00000000	     34.32000000
      2.00000000	     -0.58362414	      2.40748861	     -7.62685060	     -0.00398664	      0.00645822	     -0.00785999	    -36.64286630	      3.76613857	    -22.16321860	     -4.09706272	     36.88232290	     -5.43683207	     13.27153106	     61.70735584	     -9.12037876	      0.00000000	     34.32000000
      2.01000000	     -0.55461018	      2.39823022	     -7.68915031	     -0.00396309	      0.00638711	     -0.00790418	    -36.74405404	      3.68972311	    -22.02609990	     -4.21172807	     37.23955789	     -5.52291826	     13.43301317	     62.33716311	     -9.11156533	      0.00000000	     34.32000000
      2.02000000	     -0.59224615	      2.35638426	     -7.72948965	     -0.00392695	      0.00630991	     -0.00797125	    -36.84579764	      3.55265026	    -21.85389519	     -4.37127128	     37.61656008	     -5.59214949	     13.61229240	     62.95393088	     -9.13715996	      0.00000000	     34.32000000
      2.03000000	     -0.69429313	      2.32845392	     -7.76941994	     -0.00382333	      0.00626959	     -0.00811531	    -36.92690192	      3.42037761	    -21.62553871	     -4.52956572	     38.02691922	     -5.65862701	     13.80050419	     63.57428044	     -9.23365998	      0.00000000	     34.32000000
      2.04000000	     -0.86807111	      2.44444351	     -7.72696595	     -0.00381419	      0.00630347	     -0.00842850	    -37.01755360	      3.40512826	    -21.45029077	     -4.60527699	     38.43907998	     -5.76662094	     13.97326961	     64.09419432	     -9.23441802	      0.00000000	     34.32000000
      2.05000000	     -0.85014668	      2.42854758	     -7.79242813	     -0.00368060	      0.00622401	     -0.00851668	    -37.03353145	      3.69512219	    -21.32499647	     -4.44719080	     38.76540238	     -5.92780925	     14.39039583	     64.83560925	     -9.41736327	      0.00000000	     34.32000000
      2.06000000	     -0.90166702	      2.35099441	     -7.78104574	     -0.00369675	      0.00623979	     -0.00856186	    -37.03835319	      4.04016828	    -21.28106661	     -4.23514152	     38.98764339	     -6.08121966	     14.84419294	     65.44085109	     -9.59409314	      0.00000000	     34.32000000
      2.07000000	     -1.22571224	      2.35304547	     -7.80754665	     -0.00378190	      0.00622677	     -0.00882259	    -37.09766018	      4.11424311	    -21.24202005	     -4.21586455	     39.19464722	     -6.16691889	     14.91576784	     65.67059394	     -9.58385227	      0.00000000	     34.32000000
      2.08000000	     -1.00173392	      1.97961483	     -7.80689605	     -0.00370285	      0.00624382	     -0.00852169	    -37.03373295	      4.35897399	    -21.05493369	     -4.06884654	     39.41732161	     -6.25682935	     15.62391086	     66.57513047	     -9.70322477	      0.00000000	     34.32000000
      2.09000000	     -1.08865096	      1.99497435	     -7.77629524	     -0.00378023	      0.00626954	     -0.00864091	    -37.10645846	      4.33942253	    -20.92556016	     -4.12955375	     39.72655976	     -6.33634753	     15.78741195	     67.06196754	     -9.69360357	      0.00000000	     34.32000000
      2.10000000	     -1.06035610	      1.88732426	     -7.82772848	     -0.00370223	      0.00618888	     -0.00857529	    -37.05559818	      4.38704794	    -20.71906688	     -4.11648187	     39.91146086	     -6.36236286	     16.06373377	     67.87073582	     -9.77929720	      0.00000000	     34.32000000
      2.11000000	     -1.15413205	      1.97125296	     -7.78075406	     -0.00375886	      0.00624612	     -0.00866921	    -37.14630241	      4.37223393	    -20.58736794	     -4.17979120	     40.26219249	     -6.45726239	     16.17665686	     68.34528464	     -9.76306477	      0.00000000	     34.32000000
      2.12000000	     -1.11233125	      1.95714290	     -7.85856249	     -0.00371314	      0.00616460	     -0.00863678	    -37.20808371	      4.42750163	    -20.41970507	     -4.19317796	     40.63116688	     -6.56408462	     16.31082597	     68.98110332	     -9.78122599	      0.00000000	     34.32000000
      2.13000000	     -1.17498244	      1.98252281	     -7.82698068	     -0.00376324	      0.00618384	     -0.00867624	    -37.29659809	      4.41535535	    -20.27596142	     -4.25431494	     40.99330277	     -6.65915010	     16.40140799	     69.47363942	     -9.78074000	      0.00000000	     34.32000000
      2.14000000	     -1.25881786	      2.02250358	     -7.78739440	     -0.00381668	      0.00621814	     -0.00876542	    -37.39378313	      4.40871977	    -20.13411497	     -4.31367502	     41.37274121	     -6.76188940	     16.48337821	     69.96776503	     -9.77425639	      0.00000000	     34.32000000
